<?xml version="1.0" encoding="utf-8"?>
<!-- Generator: Adobe Illustrator 25.4.1, SVG Export Plug-In . SVG Version: 6.00 Build 0)  -->
<svg version="1.1" id="Layer_1" xmlns="http://www.w3.org/2000/svg" xmlns:xlink="http://www.w3.org/1999/xlink" x="0px" y="0px"
	 viewBox="0 0 271.32 58.21" style="enable-background:new 0 0 271.32 58.21;" xml:space="preserve">
<style type="text/css">
	.st0{fill:#F1F2F2;}
</style>
<g>
	<path class="st0" d="M250.59,39.21c-10.62,0.17-18.84-8.91-18.69-18.86c0.14-9.14,6.78-18.62,18.84-18.56
		c12.44,0.07,18.9,9.96,18.74,19.16C269.31,30.71,261.13,39.48,250.59,39.21z M255.59,31.58c0.06-2.67-2.34-5.12-5.06-5.16
		c-2.66-0.04-5.29,2.38-5.36,4.93c-0.07,2.67,2.47,5.29,5.18,5.34C253.04,36.75,255.53,34.31,255.59,31.58z M240.55,29.43
		c2.69,0.04,5.11-2.31,5.17-5.03c0.06-2.63-2.37-5.14-5.04-5.2c-2.69-0.06-5.21,2.4-5.23,5.11
		C235.44,26.99,237.82,29.38,240.55,29.43z M260.8,29.43c2.66,0.01,5.11-2.43,5.13-5.1c0.02-2.64-2.44-5.12-5.1-5.15
		c-2.65-0.03-5.15,2.42-5.17,5.07C255.63,26.99,258.05,29.42,260.8,29.43z M262.44,12.05c-0.03-2.67-2.52-5.16-5.13-5.12
		c-2.66,0.04-5.11,2.53-5.09,5.17c0.02,2.65,2.5,5.12,5.14,5.11C260.01,17.19,262.47,14.7,262.44,12.05z M249.16,12.08
		c0.01-2.64-2.46-5.13-5.11-5.15c-2.61-0.02-5.1,2.48-5.11,5.14c-0.01,2.65,2.45,5.13,5.1,5.14
		C246.68,17.21,249.16,14.73,249.16,12.08z M254.89,20.69c-0.09-0.26-0.09-0.36-0.13-0.38c-1.65-0.98-3.29-1.97-4.96-2.9
		c-0.1-0.06-0.65,0.33-0.66,0.52c-0.05,1.72-0.05,3.44,0,5.15c0.01,0.18,0.55,0.56,0.66,0.5C251.51,22.65,253.19,21.67,254.89,20.69
		z"/>
	<path class="st0" d="M250.66,41.83c2.46,0,4.92-0.04,7.37,0.03c0.67,0.02,1.41,0.25,1.97,0.61c0.86,0.56,0.75,1.69-0.19,2.1
		c-0.69,0.3-1.48,0.51-2.23,0.52c-4.78,0.04-9.56,0.02-14.34,0.02c-0.17,0-0.34,0-0.5-0.02c-1.13-0.12-1.89-0.75-1.9-1.59
		c-0.01-0.92,0.72-1.59,1.94-1.61c2.63-0.04,5.25-0.01,7.88-0.01C250.66,41.85,250.66,41.84,250.66,41.83z"/>
	<path class="st0" d="M257.94,47.61c-1.31-0.09-2.61-0.12-3.93-0.13c-0.99-0.01-2-0.02-3-0.02h-0.64c-0.99,0-2,0.01-3,0.02
		c-1.31,0.01-2.62,0.03-3.93,0.13c-0.61,0.03-1.09,0.35-1.06,1.1c0.01,0.67,0.26,1.08,0.96,1.34c0.46,0.17,0.87,0.64,1.17,1.07
		c0.24,0.34,0.29,0.82,0.45,1.22c0.24,0.6,0.57,1.13,0.98,1.59c0,0.01,0.01,0.02,0.02,0.03c0.08,0.1,0.18,0.2,0.3,0.3
		c1.17,1.15,2.81,1.76,4.44,1.79c1.64-0.03,3.27-0.64,4.45-1.79c0.09-0.09,0.19-0.19,0.29-0.3c0.41-0.46,0.76-1,1-1.62
		c0.16-0.4,0.2-0.89,0.45-1.22c0.3-0.43,0.7-0.9,1.16-1.07c0.7-0.26,0.95-0.67,0.97-1.34C259.03,47.96,258.55,47.64,257.94,47.61z
		 M252.84,52.23c-0.62,0.6-1.36,0.89-2.11,0.9h-0.08c-0.75-0.02-1.49-0.3-2.11-0.9c-0.35-0.35-0.77-1.05-1.03-1.56
		c-0.05-0.37,0.13-0.57,0.54-0.58c1.82-0.02,3.65,0,5.48,0.03c0.25,0.07,0.36,0.26,0.33,0.56C253.6,51.17,253.18,51.88,252.84,52.23
		z"/>
	<g>
		<path class="st0" d="M26.13,56.2l-0.04-16.02l-7.86,13.2h-2.78L7.63,40.52V56.2h-5.8V29.5h5.11l9.99,16.59l9.84-16.59h5.07
			l0.08,26.7H26.13z"/>
		<path class="st0" d="M41.78,55.15c-1.72-0.9-3.06-2.16-4.02-3.76c-0.97-1.6-1.45-3.42-1.45-5.45c0-2.03,0.48-3.85,1.45-5.45
			c0.97-1.6,2.31-2.85,4.02-3.76c1.72-0.9,3.66-1.35,5.82-1.35s4.09,0.45,5.8,1.35c1.7,0.9,3.04,2.16,4,3.76
			c0.97,1.6,1.45,3.42,1.45,5.45c0,2.04-0.48,3.85-1.45,5.45s-2.3,2.85-4,3.76c-1.7,0.9-3.64,1.35-5.8,1.35S43.5,56.05,41.78,55.15z
			 M51.36,50.08c0.98-1.03,1.47-2.41,1.47-4.14c0-1.73-0.49-3.11-1.47-4.14c-0.98-1.03-2.23-1.54-3.76-1.54
			c-1.53,0-2.78,0.51-3.78,1.54c-0.99,1.03-1.49,2.41-1.49,4.14c0,1.73,0.5,3.11,1.49,4.14c0.99,1.03,2.25,1.54,3.78,1.54
			C49.13,51.62,50.38,51.11,51.36,50.08z"/>
		<path class="st0" d="M82.61,35.68L73.96,56.2h-6.14L59.2,35.68h6.14l5.68,13.96l5.87-13.96H82.61z"/>
		<path class="st0" d="M85.36,31.86c-0.69-0.64-1.03-1.42-1.03-2.37c0-0.94,0.34-1.73,1.03-2.36s1.58-0.95,2.67-0.95
			c1.09,0,1.98,0.3,2.67,0.92s1.03,1.37,1.03,2.29c0,0.99-0.34,1.81-1.03,2.46c-0.69,0.65-1.58,0.97-2.67,0.97
			C86.93,32.82,86.05,32.5,85.36,31.86z M85.05,35.68H91V56.2h-5.95V35.68z"/>
		<path class="st0" d="M116.52,47.62H101c0.28,1.27,0.94,2.28,1.98,3.01c1.04,0.74,2.34,1.11,3.89,1.11c1.07,0,2.01-0.16,2.84-0.48
			c0.83-0.32,1.59-0.82,2.31-1.51l3.17,3.43c-1.93,2.21-4.75,3.32-8.47,3.32c-2.31,0-4.36-0.45-6.14-1.35
			c-1.78-0.9-3.15-2.16-4.12-3.76c-0.97-1.6-1.45-3.42-1.45-5.45c0-2.01,0.48-3.82,1.43-5.43c0.95-1.61,2.26-2.87,3.93-3.78
			c1.67-0.9,3.53-1.35,5.59-1.35c2.01,0,3.83,0.43,5.45,1.3s2.91,2.1,3.83,3.72c0.93,1.61,1.39,3.49,1.39,5.62
			C116.63,46.09,116.6,46.62,116.52,47.62z M102.6,41.02c-0.92,0.76-1.47,1.81-1.68,3.13h10.11c-0.2-1.3-0.76-2.33-1.68-3.11
			c-0.92-0.78-2.03-1.16-3.36-1.16C104.64,39.87,103.51,40.25,102.6,41.02z"/>
		<path class="st0" d="M172.16,29.5l-8.73,26.7h-6.64l-5.87-18.08l-6.06,18.08h-6.6l-8.77-26.7h6.41l6.03,18.77l6.29-18.77h5.72
			l6.1,18.92l6.22-18.92H172.16z"/>
		<path class="st0" d="M175.86,31.86c-0.69-0.64-1.03-1.42-1.03-2.37c0-0.94,0.34-1.73,1.03-2.36s1.58-0.95,2.67-0.95
			c1.09,0,1.98,0.3,2.67,0.92s1.03,1.37,1.03,2.29c0,0.99-0.34,1.81-1.03,2.46c-0.69,0.65-1.58,0.97-2.67,0.97
			C177.44,32.82,176.55,32.5,175.86,31.86z M175.56,35.68h5.95V56.2h-5.95V35.68z"/>
		<path class="st0" d="M188.95,55.87c-1.63-0.42-2.92-0.95-3.89-1.58l1.98-4.27c0.92,0.58,2.02,1.06,3.32,1.43s2.57,0.55,3.81,0.55
			c2.52,0,3.78-0.62,3.78-1.87c0-0.58-0.34-1-1.03-1.26c-0.69-0.25-1.74-0.47-3.17-0.65c-1.68-0.25-3.06-0.55-4.16-0.88
			c-1.09-0.33-2.04-0.92-2.84-1.75c-0.8-0.84-1.2-2.03-1.2-3.59c0-1.3,0.38-2.45,1.12-3.45c0.75-1,1.84-1.79,3.28-2.35
			c1.44-0.56,3.13-0.84,5.09-0.84c1.45,0,2.89,0.16,4.33,0.48c1.44,0.32,2.62,0.76,3.57,1.32l-1.98,4.23
			c-1.81-1.02-3.78-1.53-5.91-1.53c-1.27,0-2.23,0.18-2.86,0.53c-0.64,0.36-0.95,0.81-0.95,1.37c0,0.64,0.34,1.08,1.03,1.33
			c0.69,0.25,1.78,0.5,3.28,0.72c1.68,0.28,3.05,0.58,4.12,0.9c1.07,0.32,2,0.9,2.78,1.74s1.18,2.01,1.18,3.51
			c0,1.27-0.38,2.4-1.14,3.39c-0.76,0.99-1.88,1.76-3.34,2.31c-1.46,0.55-3.2,0.82-5.21,0.82C192.24,56.5,190.57,56.29,188.95,55.87
			z"/>
		<path class="st0" d="M227.28,47.62h-15.52c0.28,1.27,0.94,2.28,1.98,3.01s2.34,1.11,3.89,1.11c1.07,0,2.01-0.16,2.84-0.48
			c0.83-0.32,1.59-0.82,2.31-1.51l3.17,3.43c-1.93,2.21-4.75,3.32-8.47,3.32c-2.31,0-4.36-0.45-6.14-1.35
			c-1.78-0.9-3.15-2.16-4.12-3.76c-0.97-1.6-1.45-3.42-1.45-5.45c0-2.01,0.48-3.82,1.43-5.43c0.95-1.61,2.26-2.87,3.93-3.78
			c1.67-0.9,3.53-1.35,5.59-1.35c2.01,0,3.83,0.43,5.45,1.3s2.91,2.1,3.83,3.72c0.93,1.61,1.39,3.49,1.39,5.62
			C227.39,46.09,227.35,46.62,227.28,47.62z M213.35,41.02c-0.92,0.76-1.48,1.81-1.68,3.13h10.11c-0.2-1.3-0.76-2.33-1.68-3.11
			c-0.92-0.78-2.03-1.16-3.36-1.16C215.4,39.87,214.27,40.25,213.35,41.02z"/>
	</g>
</g>
<g>
</g>
<g>
</g>
<g>
</g>
<g>
</g>
<g>
</g>
<g>
</g>
</svg>
